<svg width="1320" height="1839" viewBox="0 0 1320 1839" fill="none" xmlns="http://www.w3.org/2000/svg">
  <rect width="1320" height="1839" fill="#FDF5E6"/>
  
  <defs>
    <pattern id="islamic-star" x="0" y="0" width="100" height="100" patternUnits="userSpaceOnUse">
      <path d="M50 5 L62 38 L95 50 L62 62 L50 95 L38 62 L5 50 L38 38 Z" 
            stroke="#D4AF37" stroke-width="0.5" fill="none" opacity="0.3"/>
      <circle cx="50" cy="50" r="3" fill="#D4AF37" opacity="0.2"/>
    </pattern>
  </defs>
  
  <rect width="1320" height="1839" fill="url(#islamic-star)"/>
  
  <rect x="40" y="40" width="1240" height="1759" stroke="#B8860B" stroke-width="4" fill="none" rx="10"/>
  <rect x="60" y="60" width="1200" height="1719" stroke="#D4AF37" stroke-width="1" fill="none" rx="5"/>
  
  <path d="M40 150 L40 40 L150 40" stroke="#B8860B" stroke-width="8" fill="none"/>
  <path d="M1170 40 L1280 40 L1280 150" stroke="#B8860B" stroke-width="8" fill="none"/>
  <path d="M40 1689 L40 1799 L150 1799" stroke="#B8860B" stroke-width="8" fill="none"/>
  <path d="M1170 1799 L1280 1799 L1280 1689" stroke="#B8860B" stroke-width="8" fill="none"/>
</svg>
